<?xml version="1.0" encoding="UTF-8"?>
<!-- Generator: Adobe Illustrator 16.0.0, SVG Export Plug-In . SVG Version: 6.00 Build 0)  -->
<!DOCTYPE svg PUBLIC "-//W3C//DTD SVG 1.1//EN" "http://www.w3.org/Graphics/SVG/1.1/DTD/svg11.dtd">
<svg version="1.1" id="Layer_1" xmlns="http://www.w3.org/2000/svg" xmlns:xlink="http://www.w3.org/1999/xlink" x="0px" y="0px" width="422.642px" height="75.583px" viewBox="0 0 422.642 75.583" enable-background="new 0 0 422.642 75.583" xml:space="preserve">
<g>
	<g>
		<linearGradient id="SVGID_1_" gradientUnits="userSpaceOnUse" x1="72.604" y1="-2.6182" x2="25.9431" y2="78.2009">
			<stop offset="0.0613" style="stop-color:#E6E7E8"/>
			<stop offset="0.504" style="stop-color:#F4F4F5"/>
			<stop offset="1" style="stop-color:#FFFFFF"/>
		</linearGradient>
		<path fill="url(#SVGID_1_)" d="M69.386,0C53.306,0,40.225,13.023,40.225,30.339v14.907c0,7.211-5.066,12.24-11.064,12.24    c-5.998,0-11.063-5.029-11.063-12.24V0.762H0v44.484c0,17.316,13.082,30.337,29.16,30.337c16.08,0,29.162-13.021,29.162-30.337    V30.339c0-7.215,5.066-12.241,11.064-12.241c5.997,0,11.062,5.026,11.062,12.241v44.483h18.098V30.339    C98.546,13.023,85.463,0,69.386,0"/>
		<linearGradient id="SVGID_2_" gradientUnits="userSpaceOnUse" x1="14.5801" y1="75.583" x2="14.5801" y2="0.7622">
			<stop offset="0" style="stop-color:#E6E7E8"/>
			<stop offset="0.2363" style="stop-color:#F2F3F3"/>
			<stop offset="0.5652" style="stop-color:#FCFCFC"/>
			<stop offset="1" style="stop-color:#FFFFFF"/>
		</linearGradient>
		<path fill="url(#SVGID_2_)" d="M18.097,63.341V45.246V0.762H0v44.484c0,17.316,13.082,30.337,29.16,30.337    C23.162,75.583,18.097,70.557,18.097,63.341"/>
		<linearGradient id="SVGID_3_" gradientUnits="userSpaceOnUse" x1="83.9663" y1="74.8223" x2="83.9663" y2="4.882812e-04">
			<stop offset="0" style="stop-color:#E6E7E8"/>
			<stop offset="0.2363" style="stop-color:#F2F3F3"/>
			<stop offset="0.5652" style="stop-color:#FCFCFC"/>
			<stop offset="1" style="stop-color:#FFFFFF"/>
		</linearGradient>
		<path fill="url(#SVGID_3_)" d="M69.386,0c5.997,0,11.062,5.029,11.062,12.243v18.096v44.483h18.098V30.339    C98.546,13.023,85.463,0,69.386,0"/>
	</g>
</g>
<g>
	<path fill="#FFFFFF" d="M163.463,43.82c0,1.507-0.179,2.925-0.549,4.279c-0.356,1.343-0.955,2.546-1.789,3.604   c-0.822,1.069-1.899,1.911-3.223,2.533c-1.32,0.623-2.91,0.932-4.776,0.932c-1.873,0-3.461-0.309-4.786-0.932   c-1.327-0.622-2.389-1.464-3.19-2.533c-0.8-1.058-1.395-2.261-1.789-3.604c-0.386-1.354-0.581-2.772-0.581-4.279V10.62h-13.218   v34.28c0,3.324,0.544,6.336,1.633,9.068c1.09,2.717,2.641,5.053,4.665,6.991c2.02,1.947,4.479,3.463,7.389,4.554   c2.9,1.078,6.167,1.636,9.791,1.636c3.58,0,6.837-0.558,9.77-1.636c2.921-1.091,5.422-2.606,7.501-4.554   c2.069-1.938,3.666-4.274,4.777-6.991c1.118-2.732,1.671-5.744,1.671-9.068V10.62h-13.297V43.82z"/>
	<path fill="#FFFFFF" d="M265.922,31.925c-1.582-1.863-3.501-3.349-5.754-4.438c-2.256-1.088-4.787-1.63-7.581-1.63   c-2.85,0-5.265,0.542-7.226,1.63c-1.979,1.09-3.502,2.293-4.591,3.579h-0.154V6.888h-12.751v58.774h11.735v-5.051h0.159   c1.243,1.975,3.019,3.487,5.326,4.551c2.307,1.055,4.756,1.594,7.348,1.594c2.902,0,5.494-0.572,7.773-1.714   c2.281-1.138,4.211-2.654,5.8-4.547c1.577-1.894,2.778-4.08,3.608-6.563c0.828-2.494,1.238-5.083,1.238-7.781   c0-2.693-0.416-5.273-1.27-7.738C268.724,35.954,267.508,33.791,265.922,31.925z M257.994,49.851   c-0.391,1.205-0.975,2.287-1.753,3.226c-0.774,0.928-1.74,1.673-2.88,2.251c-1.136,0.566-2.46,0.856-3.96,0.856   c-1.452,0-2.751-0.29-3.888-0.856c-1.141-0.578-2.116-1.323-2.921-2.251c-0.794-0.938-1.424-2.001-1.866-3.189   c-0.435-1.192-0.654-2.417-0.654-3.663c0-1.243,0.22-2.453,0.654-3.64c0.442-1.203,1.072-2.26,1.866-3.195   c0.805-0.932,1.78-1.687,2.921-2.259c1.137-0.566,2.436-0.85,3.888-0.85c1.5,0,2.824,0.284,3.96,0.85   c1.14,0.572,2.105,1.311,2.88,2.223c0.778,0.907,1.362,1.96,1.753,3.147c0.387,1.195,0.587,2.399,0.587,3.65   C258.581,47.391,258.38,48.625,257.994,49.851z"/>
	<path fill="#FFFFFF" d="M306.493,30.636c-1.398-1.679-3.23-2.922-5.481-3.727c-2.252-0.805-5.006-1.211-8.274-1.211   c-3.171,0-6.26,0.547-9.293,1.63c-3.042,1.088-5.688,2.733-7.975,4.904l6.456,6.921c1.193-1.09,2.633-2.024,4.316-2.798   c1.68-0.78,3.429-1.174,5.243-1.174c1.977,0,3.626,0.464,4.984,1.365c1.342,0.908,2.015,2.326,2.015,4.241v0.626   c-2.797,0-5.669,0.155-8.637,0.463c-2.944,0.312-5.632,0.936-8.04,1.87c-2.406,0.931-4.376,2.246-5.909,3.959   c-1.532,1.714-2.289,3.965-2.289,6.766c0,2.279,0.432,4.199,1.321,5.755c0.878,1.549,2.004,2.795,3.376,3.729   c1.384,0.935,2.896,1.611,4.551,2.021c1.658,0.414,3.271,0.614,4.824,0.614c2.329,0,4.488-0.431,6.495-1.314   c1.992-0.878,3.485-2.121,4.468-3.73h0.229v4.116h11.662V46.15c0-3.522-0.328-6.565-0.969-9.137   C308.914,34.45,307.898,32.328,306.493,30.636z M298.874,50.112c0,2.444-0.688,4.37-2.057,5.799   c-1.384,1.423-3.355,2.136-5.949,2.136c-0.622,0-1.269-0.068-1.949-0.2c-0.669-0.126-1.271-0.339-1.782-0.653   c-0.517-0.312-0.942-0.728-1.288-1.243c-0.328-0.521-0.5-1.147-0.5-1.871c0-1.13,0.359-2.054,1.095-2.754   c0.722-0.702,1.645-1.233,2.753-1.6c1.114-0.359,2.379-0.604,3.806-0.735c1.427-0.135,2.844-0.197,4.241-0.197h1.631V50.112z"/>
	<path fill="#FFFFFF" d="M355.537,31.925c-1.582-1.863-3.498-3.349-5.749-4.438c-2.259-1.088-4.789-1.63-7.582-1.63   c-2.847,0-5.27,0.542-7.239,1.63c-1.976,1.09-3.493,2.293-4.585,3.579h-0.154V6.888h-12.755v58.774h11.75v-5.051h0.152   c1.249,1.975,3.019,3.487,5.325,4.551c2.301,1.055,4.749,1.594,7.347,1.594c2.898,0,5.499-0.572,7.775-1.714   c2.272-1.138,4.203-2.654,5.795-4.547c1.579-1.894,2.791-4.08,3.621-6.563c0.823-2.494,1.238-5.083,1.238-7.781   c0-2.693-0.429-5.273-1.283-7.738C358.332,35.954,357.12,33.791,355.537,31.925z M347.611,49.851   c-0.396,1.205-0.975,2.287-1.752,3.226c-0.771,0.928-1.736,1.673-2.876,2.251c-1.145,0.566-2.469,0.856-3.965,0.856   c-1.45,0-2.75-0.29-3.889-0.856c-1.137-0.578-2.112-1.323-2.919-2.251c-0.805-0.938-1.419-2.001-1.867-3.189   c-0.441-1.192-0.659-2.417-0.659-3.663c0-1.243,0.218-2.453,0.659-3.64c0.448-1.203,1.062-2.26,1.867-3.195   c0.807-0.932,1.782-1.687,2.919-2.259c1.139-0.566,2.438-0.85,3.889-0.85c1.496,0,2.82,0.284,3.965,0.85   c1.14,0.572,2.104,1.311,2.876,2.223c0.777,0.907,1.356,1.96,1.752,3.147c0.382,1.195,0.58,2.399,0.58,3.65   C348.191,47.391,347.993,48.625,347.611,49.851z"/>
	<path fill="#FFFFFF" d="M398.829,31.304c-1.712-1.818-3.761-3.205-6.149-4.163c-2.376-0.958-5-1.442-7.847-1.442   c-2.956,0-5.705,0.5-8.244,1.484c-2.538,0.982-4.742,2.364-6.611,4.153c-1.861,1.789-3.346,3.969-4.428,6.536   c-1.095,2.569-1.637,5.427-1.637,8.59c0,3.264,0.557,6.173,1.668,8.706c1.119,2.538,2.65,4.68,4.598,6.414   c1.945,1.738,4.21,3.064,6.799,3.97c2.596,0.904,5.344,1.356,8.245,1.356c3.941,0,7.399-0.709,10.373-2.136   c2.983-1.429,5.38-3.46,7.198-6.103l-8.862-5.594c-0.886,1.188-2.022,2.161-3.424,2.913c-1.407,0.752-3.116,1.12-5.135,1.12   c-1.142,0-2.239-0.171-3.303-0.533c-1.062-0.377-2.027-0.878-2.876-1.519c-0.849-0.645-1.555-1.416-2.098-2.296   c-0.547-0.879-0.864-1.861-0.972-2.963h28.071c0.051-0.467,0.075-0.95,0.075-1.475v-1.551c0-3.316-0.479-6.27-1.451-8.859   C401.87,35.323,400.531,33.116,398.829,31.304z M376.125,41.876c0.049-0.984,0.306-1.925,0.771-2.838   c0.466-0.905,1.098-1.7,1.867-2.374c0.782-0.674,1.694-1.206,2.724-1.593c1.042-0.39,2.18-0.588,3.418-0.588   c2.547,0,4.453,0.727,5.724,2.182c1.261,1.451,1.893,3.19,1.893,5.212H376.125z"/>
	<rect x="409.648" y="6.888" fill="#FFFFFF" width="12.994" height="58.774"/>
	<path fill="#FFFFFF" d="M219.558,38.381c-0.922-2.599-2.2-4.797-3.845-6.619c-1.643-1.81-3.608-3.198-5.898-4.157   c-2.291-0.957-4.808-1.439-7.544-1.439c-2.839,0-5.474,0.497-7.913,1.479c-2.441,0.985-4.555,2.375-6.354,4.158   c-1.779,1.788-3.203,3.962-4.251,6.532c-1.043,2.57-1.566,5.436-1.566,8.587v19.205h12.822V45.143l0,0   c0.004-3.476,2.815-6.287,6.293-6.287c3.388,0,6.133,2.692,6.26,6.057c0.004,0.031-0.02,21.215-0.02,21.215h12.9V50.271   c0.049-0.473,0-0.961,0-1.481v-1.551C220.443,43.92,220.477,40.971,219.558,38.381z"/>
</g>
</svg>